<svg height="16pt" viewBox="0 0 12 16" width="12pt" xmlns="http://www.w3.org/2000/svg"><path d="m.554688.09375c-.339844.136719-.5312505.460938-.5312505.886719 0 .359375.0078125.367187 2.1250005 3.675781l2.125 3.320312-2.117188 3.316407c-1.875 2.933593-2.1171875 3.347656-2.15234375 3.636719-.03515625.398437.10937475.695312.45312475.902343l.238281.148438h10.578126l.25-.148438c.292968-.183593.460937-.492187.453124-.878906 0-.253906-.191406-.578125-2.136718-3.628906l-2.136719-3.355469 2.125-3.3125c2.109375-3.304688 2.117187-3.316406 2.117187-3.675781 0-.269531-.039062-.414063-.148437-.566407-.316406-.4374995-.054687-.41796825-5.820313-.414062-4.230468 0-5.25.0195312-5.421874.09375zm10.335937.964844c-.015625.042968-1.019531 1.625-2.21875 3.503906l-2.1875 3.425781.5625.859375c.90625 1.386719 3.808594 5.945313 3.84375 6.03125.027344.066406-.898437.085938-4.894531.085938-2.710938 0-4.933594-.019532-4.933594-.035156 0-.039063 3.28125-5.199219 4.011719-6.308594.320312-.484375.390625-.632813.332031-.726563-.03125-.070312-1.039062-1.648437-2.230469-3.515625l-2.167969-3.398437h4.953126c3.941406 0 4.957031.015625 4.929687.078125zm0 0"/><path d="m4.519531 4.414062c-.273437.136719-.367187.285157-.375.566407 0 .199219.121094.425781.636719 1.222656.351562.535156.703125 1.019531.773438 1.082031.191406.171875.625.160156.820312-.027344.191406-.171874 1.347656-1.929687 1.417969-2.140624.070312-.234376-.132813-.601563-.394531-.707032-.34375-.144531-2.601563-.136718-2.878907.003906zm0 0"/><path d="m5.714844 10.230469c-.109375.042969-.753906.664062-1.4375 1.375-2.257813 2.359375-2.070313 2.152343-2.070313 2.4375 0 .183593.042969.320312.171875.460937l.171875.199219h6.742188l.203125-.167969c.171875-.140625.210937-.21875.210937-.460937 0-.328125.191407-.09375-2.097656-2.488281-.703125-.730469-1.277344-1.324219-1.277344-1.324219-.007812 0-.101562-.027344-.214843-.058594-.140626-.035156-.277344-.03125-.402344.027344zm0 0"/></svg>